<?xml version="1.0" encoding="utf-8"?>
<!-- Generator: Adobe Illustrator 23.1.0, SVG Export Plug-In . SVG Version: 6.00 Build 0)  -->
<svg version="1.1" id="Camada_1" xmlns="http://www.w3.org/2000/svg" xmlns:xlink="http://www.w3.org/1999/xlink" x="0px" y="0px"
	 viewBox="0 0 256 255.1" style="enable-background:new 0 0 256 255.1;" xml:space="preserve">
<style type="text/css">
	.st0{fill:#FFE300;}
	.st1{fill:#FFED9F;}
	.st2{fill:#FFFFFF;}
</style>
<g transform="translate(1.4065934065934016 1.4065934065934016) scale(2.81 2.81)">
	<g>
		<path class="st0" d="M-91,199.4c-0.3,0-0.6-0.1-0.9-0.2l-23.1-12.1c-0.6-0.3-1.3-0.5-2-0.5c-0.7,0-1.4,0.2-2,0.5l-23.1,12.1
			c-0.3,0.1-0.6,0.2-0.9,0.2c-0.5,0-1.1-0.2-1.4-0.7c-0.3-0.4-0.5-0.9-0.4-1.5l4.4-25.7c0.2-1.4-0.2-2.8-1.2-3.8l-18.6-18.2
			c-0.5-0.5-0.7-1.2-0.5-1.9c0.2-0.7,0.8-1.1,1.5-1.2l25.8-3.7c1.4-0.2,2.6-1.1,3.3-2.4l11.5-23.4c0.3-0.6,0.9-1,1.6-1
			c0.7,0,1.3,0.4,1.6,1l11.5,23.4c0.6,1.3,1.8,2.2,3.3,2.4l25.8,3.7c0.7,0.1,1.3,0.6,1.5,1.2c0.2,0.7,0,1.4-0.5,1.9l-18.6,18.2
			c-1,1-1.5,2.4-1.2,3.8l4.4,25.7c0.1,0.5,0,1.1-0.4,1.5C-90,199.1-90.5,199.4-91,199.4z"/>
		<path class="st1" d="M-117,117.2c0.2,0,0.4,0.1,0.5,0.3l11.5,23.4c0.8,1.6,2.4,2.8,4.2,3l25.8,3.7c0.3,0,0.4,0.2,0.5,0.4
			c0.1,0.2,0.1,0.4-0.1,0.6l-18.6,18.2c-1.3,1.3-1.9,3.1-1.6,4.9l4.4,25.7c0,0.1,0,0.3-0.1,0.5c-0.1,0.1-0.3,0.2-0.5,0.2
			c-0.1,0-0.2,0-0.3-0.1l-23-12.1c-0.8-0.4-1.7-0.6-2.6-0.6c-0.9,0-1.8,0.2-2.6,0.6l-23.1,12.1c-0.1,0-0.2,0.1-0.3,0.1
			c-0.2,0-0.3-0.1-0.5-0.2c-0.1-0.2-0.1-0.3-0.1-0.5l4.4-25.7c0.3-1.8-0.3-3.6-1.6-4.9l-18.6-18.2c-0.2-0.2-0.2-0.4-0.1-0.6
			c0.1-0.2,0.2-0.4,0.5-0.4l25.8-3.7c1.8-0.3,3.4-1.4,4.2-3l11.5-23.4C-117.3,117.3-117.1,117.2-117,117.2 M-117,114.7
			c-1.1,0-2.2,0.6-2.8,1.7l-11.5,23.4c-0.4,0.9-1.3,1.5-2.3,1.7l-25.8,3.7c-2.5,0.4-3.5,3.5-1.7,5.2l18.6,18.2
			c0.7,0.7,1.1,1.7,0.9,2.7l-4.4,25.7c-0.3,2,1.2,3.6,3,3.6c0.5,0,1-0.1,1.4-0.4l23.1-12.1c0.4-0.2,0.9-0.4,1.4-0.4s1,0.1,1.4,0.4
			l23,12.1c0.5,0.2,1,0.4,1.4,0.4c1.8,0,3.4-1.6,3-3.6l-4.4-25.7c-0.2-1,0.2-2,0.9-2.7l18.6-18.2c1.8-1.8,0.8-4.9-1.7-5.2l-25.8-3.7
			c-1-0.1-1.9-0.8-2.3-1.7l-11.5-23.4C-114.8,115.3-115.9,114.7-117,114.7L-117,114.7z"/>
	</g>
</g>
<g transform="translate(1.4065934065934016 1.4065934065934016) scale(2.81 2.81)">
	<path class="st2" d="M47.8,3.7L59.3,27c0.4,0.9,1.3,1.5,2.3,1.7l25.8,3.7c2.5,0.4,3.5,3.5,1.7,5.2L70.5,55.9
		c-0.7,0.7-1.1,1.7-0.9,2.7L74,84.2c0.4,2.5-2.2,4.4-4.5,3.2l-23-12.1c-0.9-0.5-2-0.5-2.9,0L20.6,87.5c-2.3,1.2-4.9-0.7-4.5-3.2
		l4.4-25.7c0.2-1-0.2-2-0.9-2.7L1,37.7c-1.8-1.8-0.8-4.9,1.7-5.2l25.8-3.7c1-0.1,1.9-0.8,2.3-1.7L42.3,3.7
		C43.4,1.4,46.7,1.4,47.8,3.7z"/>
</g>
<g transform="translate(1.4065934065934016 1.4065934065934016) scale(2.81 2.81)">
	<path class="st2" d="M47.8,3.7L59.3,27c0.4,0.9,1.3,1.5,2.3,1.7l25.8,3.7c2.5,0.4,3.5,3.5,1.7,5.2L70.5,55.9
		c-0.7,0.7-1.1,1.7-0.9,2.7L74,84.2c0.4,2.5-2.2,4.4-4.5,3.2l-23-12.1c-0.9-0.5-2-0.5-2.9,0L20.6,87.5c-2.3,1.2-4.9-0.7-4.5-3.2
		l4.4-25.7c0.2-1-0.2-2-0.9-2.7L1,37.7c-1.8-1.8-0.8-4.9,1.7-5.2l25.8-3.7c1-0.1,1.9-0.8,2.3-1.7L42.3,3.7
		C43.4,1.4,46.7,1.4,47.8,3.7z"/>
</g>
</svg>
