<?xml version="1.0" encoding="utf-8"?>
<!-- Generator: Adobe Illustrator 23.1.0, SVG Export Plug-In . SVG Version: 6.00 Build 0)  -->
<svg version="1.1" id="Camada_1" xmlns="http://www.w3.org/2000/svg" xmlns:xlink="http://www.w3.org/1999/xlink" x="0px" y="0px"
	 viewBox="0 0 256 255.1" style="enable-background:new 0 0 256 255.1;" xml:space="preserve">
<style type="text/css">
	.st0{fill:#FFFFFF;}
	.st1{fill:#FFF917;}
</style>
<g transform="translate(1.4065934065934016 1.4065934065934016) scale(2.81 2.81)">
	<path class="st0" d="M47.8,3.7L59.3,27c0.4,0.9,1.3,1.5,2.3,1.7l25.8,3.7c2.5,0.4,3.5,3.5,1.7,5.2L70.5,55.9
		c-0.7,0.7-1.1,1.7-0.9,2.7L74,84.2c0.4,2.5-2.2,4.4-4.5,3.2l-23-12.1c-0.9-0.5-2-0.5-2.9,0L20.6,87.5c-2.3,1.2-4.9-0.7-4.5-3.2
		l4.4-25.7c0.2-1-0.2-2-0.9-2.7L1,37.7c-1.8-1.8-0.8-4.9,1.7-5.2l25.8-3.7c1-0.1,1.9-0.8,2.3-1.7L42.3,3.7
		C43.4,1.4,46.7,1.4,47.8,3.7z"/>
</g>
<g transform="translate(1.4065934065934016 1.4065934065934016) scale(2.81 2.81)">
	<g>
		<g>
			<path class="st1" d="M47.8,3.7L59.3,27c0.4,0.9,1.3,1.5,2.3,1.7l25.8,3.7c2.5,0.4,3.5,3.5,1.7,5.2L70.5,55.9
				c-0.7,0.7-1.1,1.7-0.9,2.7L74,84.2c0.4,2.5-2.2,4.4-4.5,3.2l-23-12.1c-0.9-0.5-2-0.5-2.9,0L20.6,87.5c-2.3,1.2-4.9-0.7-4.5-3.2
				l4.4-25.7c0.2-1-0.2-2-0.9-2.7L1,37.7c-1.8-1.8-0.8-4.9,1.7-5.2l25.8-3.7c1-0.1,1.9-0.8,2.3-1.7L42.3,3.7
				C43.4,1.4,46.7,1.4,47.8,3.7z"/>
		</g>
	</g>
</g>
</svg>
