<?xml version="1.0" encoding="utf-8"?>
<!-- Generator: Adobe Illustrator 23.1.0, SVG Export Plug-In . SVG Version: 6.00 Build 0)  -->
<svg version="1.1" id="Camada_1" xmlns="http://www.w3.org/2000/svg" xmlns:xlink="http://www.w3.org/1999/xlink" x="0px" y="0px"
	 viewBox="0 0 256 256" style="enable-background:new 0 0 256 256;" xml:space="preserve">
<style type="text/css">
	.st0{fill:#FFFFFF;}
</style>
<g transform="translate(1.4065934065934016 1.4065934065934016) scale(2.81 2.81)">
	<path class="st0" d="M72,10.9H18c-3.1,0-5.7,2.5-5.7,5.7v7h65.4v-7C77.7,13.5,75.1,10.9,72,10.9z"/>
	<path class="st0" d="M57.5,15.5H32.5c-1.4,0-2.6-1.2-2.6-2.6V6.2c0-3.4,2.8-6.2,6.2-6.2h17.9c3.4,0,6.2,2.8,6.2,6.2V13
		C60.1,14.4,59,15.5,57.5,15.5z M35,10.4H55V6.2c0-0.6-0.5-1-1-1H36.1c-0.6,0-1,0.5-1,1V10.4z"/>
	<path class="st0" d="M74,28.8H16v55.5c0,3.1,2.5,5.7,5.7,5.7h46.7c3.1,0,5.7-2.5,5.7-5.7L74,28.8L74,28.8z M31.9,79.3
		c0,1.4-1.2,2.6-2.6,2.6c-1.4,0-2.6-1.2-2.6-2.6V41.5c0-1.4,1.2-2.6,2.6-2.6c1.4,0,2.6,1.2,2.6,2.6V79.3z M47.6,79.3
		c0,1.4-1.2,2.6-2.6,2.6s-2.6-1.2-2.6-2.6V41.5c0-1.4,1.2-2.6,2.6-2.6s2.6,1.2,2.6,2.6V79.3z M63.2,79.3c0,1.4-1.2,2.6-2.6,2.6
		s-2.6-1.2-2.6-2.6V41.5c0-1.4,1.2-2.6,2.6-2.6s2.6,1.2,2.6,2.6V79.3z"/>
</g>
</svg>
