<?xml version="1.0" standalone="no"?>
<!DOCTYPE svg PUBLIC "-//W3C//DTD SVG 20010904//EN"
 "http://www.w3.org/TR/2001/REC-SVG-20010904/DTD/svg10.dtd">
<svg version="1.0" xmlns="http://www.w3.org/2000/svg"
 width="260.000000pt" height="260.000000pt" viewBox="0 0 260.000000 260.000000"
 preserveAspectRatio="xMidYMid meet">
<metadata>
Created by potrace 1.14, written by Peter Selinger 2001-2017
</metadata>
<g transform="translate(0.000000,260.000000) scale(0.100000,-0.100000)"
fill="#000000" stroke="none">
<path d="M6 2575 c-13 -35 -2 -260 16 -328 41 -151 125 -279 246 -370 108 -81
174 -109 547 -226 72 -23 164 -52 205 -66 41 -13 170 -54 285 -90 116 -37 253
-81 305 -98 52 -17 97 -31 100 -32 36 -5 185 -63 215 -84 107 -73 114 -227 15
-313 -21 -18 -148 -114 -283 -213 -135 -99 -246 -185 -246 -190 -1 -6 27 -44
62 -86 311 -374 503 -483 831 -474 67 2 131 6 143 9 11 2 43 8 70 11 75 11 76
15 26 70 -190 209 -331 372 -330 380 1 6 36 37 77 70 173 137 262 265 300 428
5 23 8 96 6 162 -7 196 -63 330 -195 463 -109 110 -183 149 -571 299 -162 63
-441 171 -620 240 -565 218 -605 233 -625 243 -84 37 -549 210 -566 210 -4 0
-9 -7 -13 -15z"/>
<path d="M199 1648 c0 -2 -3 -41 -6 -87 -8 -144 36 -249 157 -372 152 -154
310 -209 535 -185 28 3 82 8 120 11 73 5 151 13 220 20 22 2 72 7 110 10 39 4
82 8 96 11 15 2 57 7 95 10 243 21 268 26 313 72 12 11 9 18 -17 42 -32 29
-59 38 -332 115 -91 26 -194 55 -230 65 -36 10 -132 37 -215 60 -82 23 -238
66 -345 97 -107 30 -202 56 -210 58 -8 2 -72 19 -142 39 -120 34 -147 40 -149
34z"/>
<path d="M1670 969 c-19 -4 -57 -10 -85 -14 -27 -3 -88 -12 -135 -20 -47 -8
-105 -17 -130 -20 -25 -3 -83 -12 -130 -20 -47 -7 -103 -16 -125 -19 -44 -6
-290 -44 -345 -53 -19 -3 -43 -6 -52 -5 -26 1 -22 -21 11 -76 88 -141 273
-206 421 -146 60 24 228 110 435 223 223 123 214 117 208 140 -5 20 -15 22
-73 10z"/>
</g>
</svg>
