<svg xmlns="http://www.w3.org/2000/svg" viewBox="0 0 109.96 112.02"><defs><style>.cls-1{fill:#fff;}</style></defs><g id="Camada_2" data-name="Camada 2"><g id="Camada_1-2" data-name="Camada 1"><path class="cls-1" d="M93,91.55l16.49,18.82c-22.59,4.64-32.39.22-50.07-22.69C66.24,82.51,73,77.25,79.9,72.2c3.46-2.53,5.88-5.35,5.16-10s-4.2-6.47-8.13-7.76C58.82,48.57,40.69,42.71,22.59,36.76,6,31.3-2,18.21.44,0,2,.52,3.55.93,5,1.5Q46.38,17.87,87.74,34.27c15,6,22.71,16.81,22.19,31.39-.29,8.08-4,14.65-9.81,20C97.94,87.73,95.52,89.5,93,91.55Z"/><path class="cls-1" d="M8.48,40.62C24.24,45.1,39,49.29,53.79,53.51c7.16,2.05,14.33,4.08,21.43,6.3,1.18.37,2,1.72,3.06,2.62-1.23.87-2.39,2.36-3.69,2.5-13.7,1.48-27.41,2.93-41.14,4-11.28.87-24.12-10-25.38-21.16C7.84,45.72,8.29,43.59,8.48,40.62Z"/><path class="cls-1" d="M73.93,71.51c-9.1,5-18,10.48-27.37,14.76-7.37,3.34-16.49-1.4-19.24-9.22l46.07-7.2Z"/></g></g></svg>